<svg width="100%" height="100%" viewBox="0 0 30 30" fill="currentColor" xmlns="http://www.w3.org/2000/svg">
<g clip-path="url(#clip0_55_27)">
<path d="M15 30C14.9469 30 14.8937 29.999 14.8396 29.9971C14.2971 29.977 12.4158 29.8874 10.9916 29.5744C9.24339 29.1902 8.26596 28.9394 7.4399 28.5539C6.78907 28.25 6.58561 27.7959 6.52285 27.5152C5.87076 27.3697 3.81929 26.8141 2.18289 25.3037C1.4811 24.6558 1.07193 24.0325 0.837011 23.4939C0.833781 23.4871 0.830833 23.4801 0.828024 23.4731C0.407761 22.4952 0.561516 21.8016 0.571907 21.7572C0.575698 21.7413 0.580893 21.7258 0.587353 21.7106L5.61647 10.0968C5.57238 9.58025 5.4328 6.70637 7.41771 3.79753C9.28495 1.06112 12.5886 0.756417 13.5911 0.728615V0.280831C13.5911 0.125812 13.7169 0 13.8719 0H16.128C16.283 0 16.4088 0.125812 16.4088 0.280831V0.728615C17.4111 0.756277 20.7148 1.06084 22.5824 3.79753C24.5672 6.70623 24.4276 9.58025 24.3835 10.0968L29.4125 21.7106C29.4191 21.7256 29.4243 21.7412 29.4279 21.7572C29.4385 21.8013 29.591 22.4895 29.1769 23.4611C29.1714 23.478 29.1644 23.4943 29.1558 23.5099C28.9198 24.0448 28.5117 24.6623 27.817 25.3035C26.1806 26.814 24.1291 27.3696 23.4771 27.5151C23.4145 27.7958 23.2109 28.2499 22.5601 28.5537C21.7338 28.9393 20.7565 29.1899 19.0084 29.5743C17.5842 29.8872 15.7028 29.9768 15.1602 29.9969C15.1063 29.9992 15.0532 30 15 30ZM7.05446 27.2415C7.05699 27.2594 7.05769 27.2779 7.0567 27.2966C7.05656 27.3103 7.05502 27.7545 7.67734 28.045C8.45566 28.4083 9.40501 28.6507 11.112 29.0258C12.4904 29.3288 14.3297 29.4162 14.8604 29.4358C14.9544 29.4392 15.0455 29.4392 15.139 29.4358C15.6701 29.4162 17.5092 29.3287 18.8875 29.0258C20.5946 28.6507 21.5439 28.4083 22.3224 28.045C22.9448 27.7546 22.9431 27.3105 22.9429 27.2917C22.9424 27.2757 22.9436 27.2599 22.9458 27.2445C22.8821 26.9381 22.6372 25.8492 22.097 24.3689C21.6384 23.1125 20.963 22.0762 20.6248 21.5995C20.4821 21.7283 20.3036 21.8179 20.1063 21.8514C19.9346 22.1133 19.1144 23.2917 17.741 24.1246C16.2581 25.0241 15.1448 25.394 15.0878 25.4126C15.0597 25.4219 15.03 25.4268 14.9999 25.4268C14.9694 25.4268 14.9396 25.4219 14.9114 25.4125C14.8474 25.3916 13.7365 25.021 12.2585 24.1246C10.8854 23.2917 10.065 22.1133 9.89351 21.8514C9.69609 21.8179 9.51748 21.7281 9.37482 21.5995C9.03656 22.0762 8.36102 23.1123 7.90271 24.3689C7.36435 25.8444 7.11919 26.9311 7.05446 27.2415ZM1.39544 23.37C1.60859 23.8189 1.96721 24.3403 2.56384 24.891C4.0111 26.2269 5.85166 26.7745 6.54433 26.9426C6.61917 26.6093 6.76885 26.0028 7.02385 25.2036C7.07552 25.0265 7.35804 23.9496 7.35705 21.5853C7.35593 18.9792 6.60457 16.131 6.58884 16.0724C6.58828 16.0701 6.58772 16.0679 6.58716 16.0656C6.58716 16.0655 6.58716 16.0653 6.58716 16.0652C6.57115 15.9991 6.58 15.9325 6.60794 15.8755C6.60794 15.8753 6.60808 15.8752 6.60808 15.8751C6.61412 15.8627 6.62114 15.8509 6.62886 15.8397C6.66354 15.7894 6.71465 15.7501 6.77714 15.7309C6.77728 15.7309 6.77742 15.7309 6.7777 15.7307C6.78233 15.7293 6.78697 15.7281 6.79174 15.7268C6.79202 15.7268 6.79216 15.7268 6.79216 15.7268C6.79834 15.7252 6.80466 15.7238 6.81084 15.7229L13.2909 14.5015C13.4064 14.4798 13.5234 14.5323 13.5838 14.6332C13.6441 14.7341 13.6353 14.862 13.5616 14.9537L10.0182 19.3547C9.96709 19.4183 9.89071 19.4565 9.80912 19.4593C9.72502 19.4604 9.64863 19.4293 9.59331 19.3693L7.37531 16.9706C7.60643 18.0636 7.91773 19.856 7.91857 21.5855C7.91871 22.1191 7.90509 22.5892 7.88277 23.0006C8.36018 22.0411 8.86469 21.3364 9.06155 21.0753C9.04246 20.997 9.03235 20.9151 9.03235 20.831C9.03235 20.2601 9.49684 19.7955 10.0679 19.7955C10.3598 19.7955 10.6238 19.9168 10.8123 20.1117L13.9889 14.5672C14.22 14.164 14.5846 13.9327 14.9897 13.9327C15.3948 13.9327 15.7595 14.164 15.9906 14.5672L16.4082 15.296C16.4117 15.3016 16.4151 15.3074 16.418 15.3133L19.1751 20.1252C19.3642 19.9224 19.6337 19.7955 19.9322 19.7955C20.5031 19.7955 20.9678 20.2601 20.9678 20.831C20.9678 20.9153 20.9577 20.9971 20.9386 21.0755C21.1458 21.3503 21.6932 22.1157 22.1912 23.1518C22.164 22.7054 22.1466 22.1855 22.1469 21.5855C22.1476 19.8068 22.4768 17.9616 22.7095 16.879L20.407 19.3693C20.3514 19.4293 20.2715 19.4604 20.1911 19.4593C20.1096 19.4565 20.0332 19.4183 19.9821 19.3547L16.4387 14.9537C16.365 14.862 16.356 14.7342 16.4165 14.6332C16.4769 14.5324 16.5927 14.4793 16.7094 14.5015L23.1753 15.72C23.2087 15.7165 23.2435 15.7188 23.2783 15.7281C23.428 15.7682 23.517 15.9221 23.4769 16.0719C23.4691 16.1006 22.7098 18.9679 22.7087 21.5856C22.7074 24.1747 23.0465 25.22 23.0499 25.2302C23.0716 25.2952 23.0683 25.3626 23.0451 25.4219C23.2587 26.1133 23.3881 26.6403 23.4561 26.9426C24.1495 26.7737 25.9925 26.2241 27.4366 24.8913C28.0325 24.3411 28.3906 23.8193 28.6037 23.3695L23.2345 10.6054C23.0917 10.4039 21.8094 8.68159 19.5605 8.45665C17.4042 8.24097 16.7442 9.3334 16.6532 9.50794C16.6247 9.71505 16.4943 10.2048 15.898 10.4378C15.6077 10.5512 15.3814 10.4955 15.2426 10.4289C15.1474 10.3833 15.0677 10.3211 15.0017 10.2534C14.9353 10.3219 14.8549 10.3851 14.7585 10.4313C14.5595 10.5268 14.3327 10.5297 14.1032 10.4402C13.5004 10.2047 13.3737 9.70691 13.347 9.50387C13.2567 9.33101 12.5965 8.23901 10.4406 8.4544C8.1921 8.67879 6.90997 10.3997 6.76619 10.6028L1.39544 23.37ZM10.5182 21.7628C10.8285 22.1821 11.5312 23.0264 12.5499 23.6442C13.7492 24.3717 14.7131 24.7445 15 24.8483C15.2867 24.7447 16.2507 24.3717 17.45 23.6442C18.4687 23.0264 19.1713 22.1821 19.4818 21.7628C19.1667 21.61 18.9402 21.302 18.9021 20.9387H11.0979C11.0599 21.302 10.8335 21.61 10.5182 21.7628ZM1.11447 21.907C1.10226 21.9758 1.0715 22.2074 1.1302 22.5521L6.25971 10.3582C6.26645 10.3421 6.27473 10.3267 6.28428 10.3122C6.34227 10.2245 7.73463 8.16023 10.3841 7.89527C12.537 7.68001 13.4477 8.64228 13.7488 9.08669C13.9511 9.04232 14.255 8.99781 14.5099 9.05243C14.7157 9.09652 14.8809 9.20155 15.0013 9.30504C15.1213 9.20225 15.2856 9.09849 15.4898 9.05482C15.7448 9.00006 16.0485 9.04457 16.251 9.08908C16.5521 8.64467 17.4629 7.68198 19.6157 7.89766C22.2651 8.16262 23.6576 10.227 23.7156 10.3148C23.7251 10.3294 23.7334 10.3447 23.7401 10.3607L28.8681 22.5508C28.9272 22.2051 28.8969 21.9733 28.8854 21.907L23.8391 10.2537C23.8193 10.2082 23.8122 10.1583 23.8179 10.1092C23.8213 10.0796 24.14 7.07735 22.1183 4.11445C20.4259 1.63415 17.3313 1.32805 16.4057 1.29294V7.57147C17.0484 7.11512 18.2764 6.40518 19.6473 6.4591C21.6057 6.53521 23.2203 8.07332 23.2883 8.13875C23.3998 8.24645 23.4027 8.42407 23.2953 8.53556C23.1877 8.64719 23.0101 8.65056 22.8984 8.543C22.8833 8.5284 21.3668 7.08802 19.6256 7.02034C17.8892 6.95575 16.3287 8.34235 16.313 8.35625C16.2305 8.43053 16.1118 8.44907 16.0108 8.40427C15.9095 8.3592 15.844 8.25866 15.844 8.14774V1.0086C15.844 0.994561 15.8452 0.980801 15.847 0.967321V0.561661H14.1526V0.966759C14.1547 0.980379 14.1557 0.99428 14.1557 1.00846V8.1476C14.1557 8.25852 14.0902 8.35892 13.9889 8.40413C13.8875 8.44921 13.769 8.43039 13.6866 8.35611C13.6711 8.34207 12.1117 6.95308 10.3742 7.0202C8.63287 7.08774 7.11638 8.52826 7.10122 8.54286C6.98973 8.65028 6.81182 8.64719 6.70426 8.53542C6.5967 8.42379 6.59979 8.24631 6.71128 8.13861C6.7791 8.07317 8.39374 6.53507 10.3522 6.45896C11.7213 6.40392 12.9511 7.11498 13.5937 7.57119V1.2928C12.6684 1.32777 9.57365 1.63387 7.88108 4.11431C5.85995 7.07721 6.17855 10.0794 6.18192 10.1095C6.18767 10.1585 6.18023 10.2083 6.16071 10.2535L1.11447 21.907ZM19.9321 20.3566C19.6708 20.3566 19.4582 20.5691 19.4582 20.8305C19.4582 21.0918 19.6708 21.3044 19.9321 21.3044C20.1934 21.3044 20.406 21.0918 20.406 20.8305C20.406 20.5691 20.1934 20.3566 19.9321 20.3566ZM10.0679 20.3566C9.8066 20.3566 9.59401 20.5691 9.59401 20.8305C9.59401 21.0918 9.8066 21.3044 10.0679 21.3044C10.3292 21.3044 10.5418 21.0918 10.5418 20.8305C10.5418 20.5691 10.3292 20.3566 10.0679 20.3566ZM17.6194 20.3772H18.6723L17.6194 18.5396V20.3772ZM16.4502 20.3772H17.0578V17.5638C17.0578 17.5623 17.0578 17.5609 17.0578 17.5593L16.4502 16.4988V20.3772ZM15.2808 20.3772H15.8885V15.5186L15.5032 14.846C15.4412 14.7376 15.3652 14.6516 15.2808 14.5917V20.3772ZM14.1114 20.3772H14.7192V14.5778C14.6266 14.6379 14.5434 14.7289 14.4762 14.846L14.1092 15.4865C14.1107 15.4985 14.1116 15.5105 14.1116 15.5229L14.1114 20.3772ZM12.9422 20.3772H13.5499V16.4628L12.94 17.5276C12.9415 17.5396 12.9423 17.5516 12.9423 17.564L12.9422 20.3772ZM11.3072 20.3772H12.3805V18.5038L11.3072 20.3772ZM17.3534 15.1941L20.2152 18.7485L22.5894 16.1808L17.3534 15.1941ZM7.41069 16.1809L9.78497 18.7487L12.6468 15.1942L7.41069 16.1809ZM13.9594 9.6176C14.0123 9.72165 14.1137 9.84114 14.307 9.91669C14.4181 9.95993 14.4789 9.94196 14.5151 9.92455C14.5802 9.89338 14.6337 9.82696 14.6718 9.76462C14.6064 9.70073 14.5091 9.62645 14.3924 9.60145C14.2707 9.57548 14.1029 9.59191 13.9594 9.6176ZM15.33 9.76532C15.3684 9.82766 15.4217 9.89254 15.4861 9.92286C15.5222 9.93971 15.5827 9.95727 15.6929 9.9143C15.8832 9.83988 15.9844 9.72277 16.0381 9.61943C15.8885 9.59303 15.7231 9.57913 15.6076 9.6037C15.4922 9.62855 15.3955 9.70157 15.33 9.76532ZM19.4276 14.2117C18.8755 14.2117 18.326 14.1619 17.8444 14.0279C16.9337 13.7749 16.379 13.1288 16.2407 12.1595C16.2295 12.0815 16.2226 11.9979 16.2202 11.9113C16.1948 10.9836 16.7336 10.0918 17.5925 9.63923C18.2589 9.28805 19.0239 9.10986 19.8662 9.10986C22.1901 9.10986 23.0445 11.0542 23.0941 11.9958C23.1368 12.8063 22.7287 13.8265 21.4392 14.0345C20.8584 14.1283 20.1407 14.2117 19.4276 14.2117ZM19.8662 9.67166C19.116 9.67166 18.4392 9.82794 17.8544 10.1363C17.1832 10.49 16.7621 11.1807 16.7814 11.8958C16.7834 11.961 16.7885 12.0231 16.7965 12.0801C16.9025 12.822 17.3055 13.2954 17.9945 13.4867C19.0541 13.7811 20.5512 13.6089 21.3497 13.4801C22.509 13.2933 22.5486 12.3195 22.5333 12.0256C22.5072 11.5284 21.9775 9.67166 19.8662 9.67166ZM10.5724 14.2117C9.85911 14.2117 9.14173 14.1283 8.56069 14.0346C7.27098 13.8267 6.86321 12.8064 6.9059 11.996C6.95547 11.0543 7.80975 9.11 10.1338 9.11C10.976 9.11 11.741 9.28805 12.4075 9.63937C13.2666 10.0921 13.8052 10.9837 13.7798 11.9113C13.7774 11.9975 13.7707 12.081 13.7594 12.1597C13.621 13.1291 13.0663 13.7752 12.1556 14.0282C11.674 14.1617 11.1244 14.2117 10.5724 14.2117ZM10.1338 9.67166C8.02234 9.67166 7.49297 11.5284 7.46672 12.0254C7.45127 12.3195 7.49087 13.2931 8.65014 13.48C9.44868 13.6089 10.9463 13.7811 12.0054 13.4866C12.6944 13.2952 13.0974 12.822 13.2034 12.0801C13.2115 12.0228 13.2166 11.9607 13.2184 11.8957C13.2379 11.1804 12.817 10.4897 12.1458 10.1362C11.5607 9.82794 10.8837 9.67166 10.1338 9.67166ZM15.7158 13.3823H14.284C14.129 13.3823 14.0032 13.2565 14.0032 13.1014C14.0032 12.9464 14.129 12.8206 14.284 12.8206H15.7158C15.8709 12.8206 15.9967 12.9464 15.9967 13.1014C15.9967 13.2565 15.871 13.3823 15.7158 13.3823ZM15.4427 12.5332H14.5573C14.4022 12.5332 14.2764 12.4074 14.2764 12.2524C14.2764 12.0973 14.4022 11.9715 14.5573 11.9715H15.4427C15.5977 11.9715 15.7236 12.0973 15.7236 12.2524C15.7236 12.4074 15.5979 12.5332 15.4427 12.5332ZM15.4427 11.672H14.5573C14.4022 11.672 14.2764 11.5462 14.2764 11.3912C14.2764 11.2362 14.4022 11.1104 14.5573 11.1104H15.4427C15.5977 11.1104 15.7236 11.2362 15.7236 11.3912C15.7236 11.5462 15.5979 11.672 15.4427 11.672Z" fill="white"/>
</g>
<defs>
<clipPath id="clip0_55_27">
<rect width="30" height="30" fill="white"/>
</clipPath>
</defs>
</svg>
