<svg width="100%" height="100%" viewBox="0 0 201 72" fill="none" xmlns="http://www.w3.org/2000/svg">
<path d="M26.1572 6.05299C25.835 6.05299 25.674 6.24229 25.674 6.6209C25.674 6.71555 25.6977 6.77707 25.7451 6.80547L29.2701 9.44625C30.7199 10.5442 31.4449 12.016 31.4449 13.8617C31.4449 15.3952 30.8194 16.7013 29.5686 17.7803C28.2989 18.8499 26.8963 19.3846 25.3612 19.3846H14.4733V13.3222H21.6797C22.002 13.3222 22.1631 13.1282 22.1631 12.7401C22.1631 12.6739 22.1394 12.6171 22.092 12.5697L18.8086 10.1703C17.5293 9.23328 16.8897 7.80404 16.8897 5.88262C16.8897 4.30193 17.5056 2.92949 18.7375 1.76527C19.9694 0.5916 21.3766 0.00476074 22.9591 0.00476074H33.8755V6.05299H26.1572ZM44.1948 6.05299V19.3846H36.9172V6.05299H30.2509V0.00476074H50.8612V6.05299H44.1948ZM59.9298 6.46473L58.4515 12.1154H61.408L59.9298 6.46473ZM63.3269 19.3846L62.6873 16.9569H57.158L56.5326 19.3846H49.0134L54.102 0.00476074H65.7434L70.8461 19.3846H63.3269ZM87.5903 19.3846C85.9604 19.3846 84.3447 18.5753 82.7433 16.9569L79.3461 13.5636V19.3846H72.0685V8.96352H83.9515C84.34 8.96352 84.6765 8.82154 84.9606 8.53759C85.2545 8.24417 85.4013 7.90343 85.4013 7.51535C85.4013 7.12728 85.2545 6.78654 84.9606 6.49311C84.6765 6.1997 84.34 6.05299 83.9515 6.05299H72.0685V0.00476074H85.8845C87.6661 0.00476074 89.2486 0.653124 90.632 1.94984C91.9966 3.24658 92.6789 4.77519 92.6789 6.5357C92.6789 7.85137 92.2903 9.06764 91.5134 10.1845C90.7458 11.2919 89.7461 12.0823 88.5142 12.5555C88.8079 13.0667 89.2296 13.3222 89.7792 13.3222H93.9013V19.3846H87.5903Z" fill="#FFE81F"/>
<path d="M133.724 19.3846H125.465L123.774 12.9105L122.068 19.3846H113.824L108.735 0.00476074H116.255L117.946 6.46473L119.652 0.00476074H127.896L129.587 6.46473L131.293 0.00476074H138.812L133.724 19.3846ZM147.085 6.46473L145.607 12.1154H148.563L147.085 6.46473ZM150.482 19.3846L149.842 16.9569H144.312L143.687 19.3846H136.169L141.257 0.00476074H152.899L158.001 19.3846H150.482ZM174.745 19.3846C173.115 19.3846 171.5 18.5753 169.898 16.9569L166.501 13.5636V19.3846H159.224V8.96352H171.106C171.495 8.96352 171.831 8.82154 172.116 8.53759C172.41 8.24417 172.556 7.90343 172.556 7.51535C172.556 7.12728 172.41 6.78654 172.116 6.49311C171.831 6.1997 171.495 6.05299 171.106 6.05299H159.224V0.00476074H173.04C174.822 0.00476074 176.403 0.653124 177.787 1.94984C179.152 3.24658 179.834 4.77519 179.834 6.5357C179.834 7.85137 179.446 9.06764 178.668 10.1845C177.9 11.2919 176.901 12.0823 175.67 12.5555C175.962 13.0667 176.385 13.3222 176.934 13.3222H181.057V19.3846H174.745ZM192.144 6.05299C191.821 6.05299 191.66 6.24229 191.66 6.6209C191.66 6.71555 191.683 6.77707 191.73 6.80547L195.256 9.44625C196.706 10.5442 197.431 12.016 197.431 13.8617C197.431 15.3952 196.805 16.7013 195.555 17.7803C194.285 18.8499 192.882 19.3846 191.348 19.3846H180.459V13.3222H187.666C187.988 13.3222 188.149 13.1282 188.149 12.7401C188.149 12.6739 188.125 12.6171 188.078 12.5697L184.795 10.1703C183.516 9.23328 182.875 7.80404 182.875 5.88262C182.875 4.30193 183.492 2.92949 184.723 1.76527C185.956 0.5916 187.363 0.00476074 188.946 0.00476074H199.862V6.05299H192.144Z" fill="#FFE81F"/>
<path d="M97.0345 29.4217V33.2307H94.9552V29.4217H93.0505V27.6937H98.9391V29.4217H97.0345ZM103.098 33.2307V31.1904H101.368V33.2307H99.2885V27.6937H101.368V29.734H103.098V27.6937H105.177V33.2307H103.098ZM105.526 33.2307V27.6937H111.07V29.4217H107.606V29.734H109.685V31.1904H107.606V31.4986H111.07V33.2307H105.526Z" fill="white"/>
<path d="M15.3701 49.235L13.3991 56.7692H17.3412L15.3701 49.235ZM19.8997 66.4615L19.0468 63.2244H11.6745L10.8406 66.4615H0.814941L7.59977 40.6217H23.1215L29.9253 66.4615H19.8997ZM48.7067 66.4615H33.1851L26.4002 40.6217H36.4258L40.9553 57.8293L45.4849 40.6217H55.5105L48.7067 66.4615ZM66.5407 49.235L64.5697 56.7692H68.5116L66.5407 49.235ZM71.0701 66.4615L70.2173 63.2244H62.8449L62.0111 66.4615H51.9855L58.7703 40.6217H74.2921L81.0959 66.4615H71.0701ZM97.224 48.686V66.4615H87.5205V48.686H78.632V40.6217H106.112V48.686H97.224ZM118.204 49.235L116.233 56.7692H120.175L118.204 49.235ZM122.734 66.4615L121.881 63.2244H114.508L113.674 66.4615H103.649L110.434 40.6217H125.955L132.759 66.4615H122.734ZM155.085 66.4615C152.911 66.4615 150.757 65.3825 148.622 63.2244L144.092 58.7001V66.4615H134.389V52.5666H150.233C150.751 52.5666 151.199 52.3774 151.579 51.9988C151.97 51.6075 152.165 51.1532 152.165 50.6358C152.165 50.1184 151.97 49.6641 151.579 49.2728C151.199 48.8816 150.751 48.686 150.233 48.686H134.389V40.6217H152.81C155.186 40.6217 157.296 41.4861 159.141 43.2151C160.959 44.9441 161.869 46.9822 161.869 49.3297C161.869 51.0839 161.352 52.7055 160.315 54.1947C159.292 55.6712 157.96 56.7251 156.317 57.356C156.708 58.0375 157.271 58.3783 158.003 58.3783H163.499V66.4615H155.085ZM178.281 48.686C177.852 48.686 177.637 48.9384 177.637 49.4432C177.637 49.5694 177.669 49.6515 177.733 49.6893L182.432 53.2103C184.366 54.6743 185.332 56.6367 185.332 59.0976C185.332 61.1421 184.499 62.8837 182.831 64.3224C181.137 65.7485 179.267 66.4615 177.221 66.4615H162.703V58.3783H172.312C172.742 58.3783 172.957 58.1196 172.957 57.6022C172.957 57.5139 172.925 57.4381 172.861 57.375L168.484 54.1758C166.777 52.9264 165.925 51.0207 165.925 48.4588C165.925 46.3512 166.747 44.5213 168.389 42.969C170.032 41.4041 171.908 40.6217 174.017 40.6217H188.573V48.686H178.281Z" fill="#FF0911"/>
<path d="M12.0954 29.0769H83.1724L82.1665 31.8461H11.0896L12.0954 29.0769Z" fill="#FFE81F"/>
<path d="M121.606 29.0769H192.683L191.676 31.8461H120.6L121.606 29.0769Z" fill="#FFE81F"/>
</svg>
