<?xml version="1.0" encoding="utf-8"?>
<!-- Generator: Adobe Illustrator 19.0.0, SVG Export Plug-In . SVG Version: 6.00 Build 0)  -->
<svg version="1.1" id="Layer_1" xmlns="http://www.w3.org/2000/svg" xmlns:xlink="http://www.w3.org/1999/xlink" x="0px" y="0px"
	 viewBox="0 0 454.9 454.8" style="enable-background:new 0 0 454.9 454.8;" xml:space="preserve">
<style type="text/css">
	.st0{fill:#5BC8DC;}
	.st1{fill:#6154A4;}
	.st2{fill:#E91E25;}
	.st3{fill:#F05577;}
	.st4{fill:#3B429B;}
</style>
<g>
	<path class="st0" d="M78.2,46.5c2-0.1,4-0.2,6-0.2c116.9,0,233.9,0,350.8,0c6.7,0,6.7,0,6.7,6.7c0,116.4,0,232.9-0.1,349.3
		c0,2.2,1,4.7-1.1,6.6c-0.5,0.1-0.9,0.1-1.4-0.1c-1.9-1.1-3.3-2.8-4.8-4.3C317,287.2,199.8,170,82.7,52.7
		C80.9,50.9,78.2,49.6,78.2,46.5z"/>
	<path class="st0" d="M15.5,405.7c-0.1-1.7-0.2-3.3-0.2-5c0-116.2,0-232.4,0-348.6c0-2-1-4.4,1.2-6.1c1.1-0.2,1.9,0.3,2.6,0.9
		c49,48.8,97.8,97.7,146.7,146.6c1.4,1.4,3.1,2.6,3,4.9c-5.2,9-11.8,16.9-17.9,25.2c-29,39.5-57.9,79-86.9,118.4
		c-14.4,19.6-28.7,39.2-43.2,58.8C19.4,402.8,18.5,405.5,15.5,405.7z"/>
	<path class="st1" d="M15.5,405.7c12.6-17,25.2-33.9,37.7-50.9c37.8-51.5,75.6-103,113.4-154.5c0.6-0.8,1.3-1.5,2-2.2
		c2.3,0,3.5,1.8,4.9,3.1c28.4,28.3,56.7,56.7,85,85.1c1.7,1.7,4.1,3.2,3.2,6.3c-4.8,8.6-11.3,16.1-17.1,24
		c-21,28.8-42.1,57.5-63.2,86.2c-0.8,1.1-2.2,2.1-2,4.4c66.1-0.1,132.1,0.1,198.2-0.1c0.9,0.2,2.8,2.6,2.8,2.6s-6.5,0-8.5,0
		c-64.5,0-111.4,0.6-175.9,0c-1.9,0-29.3,0-29.3,0s-121.6-0.1-151.2-0.1C15.4,408.4,15.5,406.7,15.5,405.7z"/>
	<path class="st2" d="M261.7,291.2c-3-3.1-5.9-6.3-9-9.3c-26.7-26.7-53.4-53.4-80.1-80.1c-1.3-1.3-2.7-2.5-4-3.7
		c-10-10-19.9-20.1-29.9-30.1C98.5,127.7,58.3,87.5,18.2,47.3c0.9-2.7,3.4-2.4,5.4-2.5c16.1-0.2,32.1-0.1,48.2-0.1
		c2,0,3.9,0.6,5.7,1.5c0.2,0.1,0.5,0.2,0.7,0.2c1.5,1.6,2.9,3.2,4.4,4.7C200.4,169,318.2,286.8,436.1,404.7c1.2,1.2,2.2,2.4,3.3,3.7
		c-1.7,1.8-3.9,1.6-6,1.6c-15.7,0.1-31.5,0-47.2,0c-2.4,0-4.6-0.5-6.7-1.4c0,0-0.2,0-0.2,0c-0.6-0.6-1.2-1.2-1.8-1.8
		c-2.3,0-3.5-1.8-4.8-3.2c-35.9-35.9-71.8-71.7-107.6-107.6C263.5,294.6,261.7,293.5,261.7,291.2z"/>
	<path class="st3" d="M77.5,46.3c-17.9,0-35.8,0-53.7,0c-1.9,0-4-0.8-5.6,1c-0.6-0.4-1.2-0.9-1.7-1.3c-4.6-4.8-9.2-9.6-13.9-14.3
		c-2-1.9-2.1-3.1,0-5.1C11,18.4,19.4,10.1,27.6,1.5c2.3-2.3,3.4-1.9,5.5,0.1C47.8,16.6,62.7,31.4,77.5,46.3z"/>
	<path class="st3" d="M379.4,408.6c20-0.1,40-0.2,60-0.3c0.4,0.1,0.7,0.3,1.1,0.4c4.5,4.7,8.9,9.4,13.6,13.9
		c2.3,2.2,2.5,3.6,0.1,5.9c-8.3,8-16.4,16.1-24.4,24.4c-2.5,2.6-3.9,2.2-6.2-0.1C408.9,438,394.1,423.3,379.4,408.6z"/>
	<path class="st1" d="M271.3,125.9c0-20.6,16.5-37.2,37-37.3c20.7-0.1,37.3,16.6,37.3,37.5c0,20.8-16.7,37.4-37.5,37.2
		C287.6,163.3,271.3,146.6,271.3,125.9z"/>
	<path class="st4" d="M261.7,291.2c0.8,0.6,1.6,1.2,2.3,1.9c37.3,37.3,74.5,74.6,111.8,111.8c0.6,0.6,4.5,4.5,4.5,4.5
		s-5.1,0.1-6.5,0.1c-65.5,0-110.9,0-176.4,0c-0.3,0-21.7,0.3-22.6,0c5.4-7.5,11.8-16.4,17.2-23.7c22.9-31.2,45.8-62.3,68.7-93.5
		C260.9,291.8,261.3,291.5,261.7,291.2z"/>
	<path class="st4" d="M373.7,408.4c-65.5,0-68.5,1.3-133.9,1.2c-0.3,0-64.2,0.2-65.1-0.1"/>
</g>
</svg>
